# xmcd CD database file
#
# Track frame offsets:
#	150
#	21713
#	46325
#	68310
#	91758
#	119672
#	142099
#	173253
#	182827
#	215963
#	237583
#	259040
#
# Disc length: 3775 seconds
#
# Revision: 0
# Processed by: cddbd v1.5.2PL0 Copyright (c) Steve Scherf et al.
# Submitted via: CDex 2.06
#
DISCID=af0ebd0c
DTITLE=Nicola Conte and Spiritual Galaxy - Let Your Light Shine On
DYEAR=2018
DGENRE=Jazz
TTITLE0=Uhuru Na Umoja
TTITLE1=Ogun
TTITLE2=Cosmic Peace
TTITLE3=Universal Rhythm
TTITLE4=Mystic Revelation Of The Gods
TTITLE5=Let Your Light Shine On
TTITLE6=Space Dimensions
TTITLE7=Tribes From The Unknown
TTITLE8=Me Do Wo
TTITLE9=Essence Of The Sun
TTITLE10=Love Power
TTITLE11=Afro Black
EXTD=YEAR: 2018
EXTT0=
EXTT1=
EXTT2=
EXTT3=
EXTT4=
EXTT5=
EXTT6=
EXTT7=
EXTT8=
EXTT9=
EXTT10=
EXTT11=
PLAYORDER=
